<svg width="62" height="33" viewBox="0 0 62 33" fill="none" xmlns="http://www.w3.org/2000/svg">
<path d="M27.2529 15.559L16.6329 4.93897C14.8344 3.14059 12.3952 2.13029 9.85189 2.13029C7.30854 2.13029 4.86935 3.14059 3.07089 4.93897C1.27251 6.73743 0.262199 9.17663 0.262199 11.72C0.262199 14.2633 1.27251 16.7025 3.07089 18.501L13.6909 29.121C15.4894 30.9194 17.9285 31.9297 20.4719 31.9297C23.0152 31.9297 25.4544 30.9194 27.2529 29.121C29.0513 27.3225 30.0616 24.8833 30.0616 22.34C30.0616 19.7966 29.0513 17.3574 27.2529 15.559Z" fill="#5CC9F6"/>
<path d="M58.2129 11.753C56.4144 9.9546 53.9752 8.94427 51.4319 8.94427C48.8885 8.94427 46.4493 9.9546 44.6509 11.753C43.7603 12.6435 43.0538 13.7007 42.5718 14.8643C42.0898 16.0279 41.8417 17.275 41.8417 18.5345C41.8417 19.7939 42.0898 21.0411 42.5718 22.2046C43.0538 23.3682 43.7603 24.4254 44.6509 25.316C46.4493 27.1144 48.8885 28.1247 51.4319 28.1247C53.9752 28.1247 56.4144 27.1144 58.2129 25.316C59.1035 24.4254 59.81 23.3682 60.292 22.2046C60.774 21.0411 61.0221 19.7939 61.0221 18.5345C61.0221 17.275 60.774 16.0279 60.292 14.8643C59.81 13.7007 59.1035 12.6435 58.2129 11.753Z" fill="#FA8807"/>
<path d="M17.6109 11.725L13.6459 15.69L13.6289 15.672C12.0791 17.182 10.0643 18.1237 7.91169 18.3439C5.75911 18.5641 3.59533 18.0499 1.77189 16.885C2.14568 17.4689 2.58154 18.0108 3.07189 18.501L7.3519 22.781L7.39489 22.765L13.7419 29.112L31.1289 11.725C30.2414 10.8372 29.1877 10.1329 28.028 9.65242C26.8682 9.17193 25.6252 8.92461 24.3699 8.92461C23.1146 8.92461 21.8715 9.17193 20.7118 9.65242C19.5521 10.1329 18.4984 10.8372 17.6109 11.725Z" fill="#00AEEB"/>
<path d="M51.3909 5.02396L51.3819 5.01496C50.5058 4.10966 49.4571 3.38924 48.2977 2.89624C47.1384 2.40324 45.892 2.14767 44.6322 2.14469C43.3723 2.1417 42.1247 2.39134 40.9631 2.87885C39.8014 3.36635 38.7493 4.08184 37.8689 4.98297L20.4909 22.361C18.7993 24.0513 16.5373 25.0487 14.1483 25.1575C11.7594 25.2663 9.41608 24.4786 7.5779 22.949L13.7419 29.113L13.7489 29.107C15.5451 30.9031 17.9812 31.9121 20.5214 31.9121C23.0616 31.9121 25.4977 30.9031 27.2939 29.107L44.2189 12.182L44.2469 12.19C44.3779 12.042 44.5119 11.896 44.6539 11.754C45.8359 10.5707 47.307 9.7173 48.9209 9.27872C50.5349 8.84014 52.2356 8.83161 53.8539 9.25397C53.4147 7.6538 52.5657 6.19582 51.3909 5.02396Z" fill="#0080CA"/>
<path d="M53.8479 9.25497C52.2296 8.83261 50.5289 8.84113 48.9149 9.27971C47.3009 9.7183 45.8299 10.5717 44.6479 11.755C44.5059 11.897 44.3719 12.043 44.2409 12.191L44.2139 12.183L27.2889 29.108C27.2579 29.139 27.2259 29.167 27.1959 29.197L27.2069 29.209C29.0054 31.0074 31.4445 32.0177 33.9879 32.0177C36.5312 32.0177 38.9704 31.0074 40.7689 29.209L51.3889 18.5889C52.5884 17.3901 53.4481 15.8943 53.8802 14.2544C54.3122 12.6144 54.301 10.8892 53.8479 9.25497Z" fill="#EE5913"/>
<path d="M25.2849 8.08598C26.1288 8.08598 26.8129 7.40187 26.8129 6.55798C26.8129 5.71408 26.1288 5.02998 25.2849 5.02998C24.441 5.02998 23.7569 5.71408 23.7569 6.55798C23.7569 7.40187 24.441 8.08598 25.2849 8.08598Z" fill="#5CC9F6"/>
<path d="M21.9119 5.11498C22.4531 5.11498 22.8919 4.67621 22.8919 4.13498C22.8919 3.59374 22.4531 3.15498 21.9119 3.15498C21.3707 3.15498 20.9319 3.59374 20.9319 4.13498C20.9319 4.67621 21.3707 5.11498 21.9119 5.11498Z" fill="#5CC9F6"/>
<path d="M24.0759 2.50797C24.6171 2.50797 25.0559 2.06921 25.0559 1.52797C25.0559 0.986735 24.6171 0.547974 24.0759 0.547974C23.5347 0.547974 23.0959 0.986735 23.0959 1.52797C23.0959 2.06921 23.5347 2.50797 24.0759 2.50797Z" fill="#5CC9F6"/>
</svg>
